_________________________  Visit us at _________________________
  
http://p2pdl.com  ____________________________  http://p2pdl.com

 
http://i.imgur.com/nnpHL.jpg


Release Title: The Avengers (2012)

					
Genre: Action | Sci-Fi | Thriller
IMDb Rating: 8.6/10 
http://cinemahouse.in/movie/90/The+Avengerss


Plot: Nick Fury of S.H.I.E.L.D. brings together a team of super humans to form The Avengers to help save the Earth from Loki and his army.


Director:  Joss Whedon


Stars: Robert Downey Jr., Chris Evans and Scarlett Johansson.


Rated: PG-13 for intense sequences of sci-fi violence and action throughout, and a mild drug reference.


General
Format                         : Matroska
Format version                 : Version 2
File size                      : 1.34 GiB
Duration                       : 2h 22mn
Overall bit rate               : 1 344 Kbps
Movie name                     : The Avengers 2012 720p BRRip x264 6ch AC3 - ViZNU [P2PDL]
Source                         : HDCLUB(Thanks)

Video
ID                             : 1
Format                         : AVC
Format/Info                    : Advanced Video Codec
Format profile                 : High@L4.1
Codec ID                       : V_MPEG4/ISO/AVC
Duration                       : 2h 22mn
Bit rate                       : 1 023 Kbps
Width                          : 1 280 pixels
Height                         : 720 pixels
Display aspect ratio           : 16:9
Frame rate                     : 23.976 fps
Color space                    : YUV
Chroma subsampling             : 4:2:0
Bit depth                      : 8 bits
Scan type                      : Progressive
Bits/(Pixel*Frame)             : 0.046
Stream size                    : 1 019 MiB (74%)
Writing library                : x264 
Default                        : Yes


Audio
ID                             : 2
Format                         : AC-3
Format/Info                    : Audio Coding 3
Codec ID                       : A_AC3
Duration                       : 2h 22mn
Bit rate mode                  : Constant
Bit rate                       : 320 Kbps
Channel(s)                     : 6 channels
Channel positions              : Front: L C R, Side: L R, LFE
Sampling rate                  : 44.1 KHz
Bit depth                      : 16 bits
Compression mode               : Lossy
Stream size                    : 327 MiB (24%)
Default                        : Yes


Subtitle                       : No


Screens:

 
http://i.imgur.com/sOABP.png
 
http://i.imgur.com/2tcw4.jpg
 
http://i.imgur.com/qnqLt.png
 
http://i.imgur.com/9MOLb.jpg
 
http://i.imgur.com/f8Zda.jpg
 
http://i.imgur.com/tOw5K.png



------------------------------------------------------------------------


Recommend you to use VLC player. Check sample to be sure. Enjoy!


Greets to: srkfan, Vitamin_X, MgB, staff members at ExtraTorrent, TPB,KAT, 1337x, PublicHD, Ahashare, SilverTorrent, TorrentMafia, P2PDL, and all others


Encoder Notes: Looking For Early Access To Anything You Can Provide DVDScr, R5, DVDRips, BluRay, Direct Audio, Early Music Releases, Seedboxes, Links, Dedicated Servers anything u can provide, Advance / Promo CDs/DVDs. If You Got anything to offer contact me at "contact@tinym.eu"
